<?xml version="1.0" standalone="no"?>
<!DOCTYPE svg PUBLIC "-//W3C//DTD SVG 20010904//EN"
 "http://www.w3.org/TR/2001/REC-SVG-20010904/DTD/svg10.dtd">
<svg version="1.0" xmlns="http://www.w3.org/2000/svg"
 width="512.000000pt" height="512.000000pt" viewBox="0 0 512.000000 512.000000"
 preserveAspectRatio="xMidYMid meet">

<g transform="translate(0.000000,512.000000) scale(0.100000,-0.100000)"
fill="#000000" stroke="none">
<path d="M2380 4943 c-511 -45 -921 -413 -1016 -910 -20 -106 -22 -290 -4
-393 80 -465 439 -828 906 -916 119 -22 355 -15 464 14 245 65 450 195 597
377 111 138 179 272 225 443 29 111 36 346 14 466 -75 398 -346 718 -724 856
-129 47 -333 75 -462 63z"/>
<path d="M3636 2715 c-134 -37 -295 -157 -316 -236 -28 -103 47 -199 155 -199
53 0 89 16 125 55 14 15 48 38 75 51 49 23 58 24 310 24 290 0 307 -4 374 -71
75 -74 71 -24 71 -885 l0 -772 -28 -53 c-36 -69 -95 -114 -167 -129 -36 -8
-136 -10 -283 -8 -252 4 -271 8 -343 72 -59 54 -95 69 -151 64 -122 -12 -183
-144 -115 -247 32 -48 130 -124 202 -156 102 -45 144 -50 445 -50 267 0 290 1
355 22 194 62 341 215 390 408 22 88 22 1598 0 1694 -47 200 -216 369 -416
416 -86 20 -609 20 -683 0z"/>
<path d="M2055 2224 c-496 -50 -1016 -203 -1438 -421 -122 -64 -174 -112 -215
-201 l-27 -57 0 -475 c0 -474 0 -475 23 -532 46 -113 159 -205 281 -228 46 -8
2341 -16 2341 -7 0 1 -7 36 -16 77 -15 75 -12 166 7 218 7 19 0 31 -55 85 -69
67 -119 155 -137 236 l-10 49 -177 5 c-239 7 -317 33 -427 142 -207 204 -187
540 42 716 107 82 148 93 371 97 150 3 192 6 192 17 0 37 45 150 81 205 23 33
40 63 38 64 -2 2 -64 9 -138 15 -176 15 -573 12 -736 -5z"/>
<path d="M3225 2026 c-56 -25 -88 -70 -93 -129 -6 -70 7 -93 107 -192 45 -44
81 -83 81 -87 0 -5 -186 -8 -414 -8 -412 0 -413 0 -446 -22 -50 -34 -72 -71
-77 -125 -5 -59 25 -117 77 -147 33 -20 54 -21 448 -26 l413 -5 -81 -80 c-96
-94 -110 -118 -110 -182 0 -88 68 -153 160 -153 22 0 53 6 68 14 32 18 485
472 501 503 16 31 14 109 -3 141 -21 39 -465 477 -503 496 -39 19 -87 20 -128
2z"/>
</g>
</svg>
